<?xml version="1.0" encoding="UTF-8"?>
<svg width="155px" height="125px" viewBox="0 0 155 125" version="1.1" xmlns="http://www.w3.org/2000/svg" xmlns:xlink="http://www.w3.org/1999/xlink">
    <!-- Generator: Sketch 51.1 (57501) - http://www.bohemiancoding.com/sketch -->
    <title>Group 20</title>
    <desc>Created with Sketch.</desc>
    <defs></defs>
    <g id="Desktop" stroke="none" stroke-width="1" fill="none" fill-rule="evenodd">
        <g id="Homepage" transform="translate(-1003.000000, -2820.000000)" fill="#FF750F" fill-rule="nonzero">
            <g id="Group-27" transform="translate(510.000000, 2432.000000)">
                <g id="Group-26" transform="translate(0.000000, 386.000000)">
                    <g id="Group-21" transform="translate(465.000000, 2.000000)">
                        <g id="Group-20" transform="translate(28.000000, 0.000000)">
                            <g id="noun_Tshirt_1407519_000000">
                                <path d="M10.8384298,49.9614863 L33.4123608,45.2392449 C34.7177442,44.9690741 35.9972499,45.805454 36.2704028,47.1103217 C36.302031,47.2741487 36.3192828,47.4408498 36.3221581,47.6018027 L36.3279087,120.157044 L118.673446,120.157044 L118.673446,47.6018027 C118.673446,46.2653193 119.757431,45.1817617 121.094443,45.1817617 C121.333092,45.1817617 121.563116,45.2133775 121.778763,45.2794831 L144.162925,49.9614863 L149.781249,24.0423306 L103.911688,5.88914948 C103.123857,11.7840473 100.3607,17.0839944 96.3065358,21.1049413 C91.4760424,25.8961624 84.8168621,28.87379 77.4992396,28.87379 C70.1844923,28.87379 63.5224367,25.8961624 58.6919433,21.1049413 C54.6406544,17.0839944 51.8774971,11.7840473 51.0896667,5.88914948 L5.22010582,24.0423306 L10.8384298,49.9614863 Z M99.1013213,5.30569543 C91.9245882,6.41512037 84.7219774,6.95833621 77.4992396,6.94971373 C70.279377,6.94396542 63.0767662,6.38637879 55.8971578,5.2941988 C56.5469742,10.0940424 58.7983291,14.4081534 62.0991663,17.6818192 C66.0440693,21.5992964 71.4985015,24.030834 77.4992396,24.030834 C83.4999776,24.030834 88.9544098,21.5992964 92.9021881,17.6818192 C96.1972747,14.4110276 98.4515049,10.0997908 99.1013213,5.30569543 Z M53.8298216,0.0632314732 C61.7455052,1.42270815 69.6410618,2.12112851 77.4992396,2.12975098 C85.3861702,2.1354993 93.3047292,1.45144973 101.249166,0.0488606838 L101.254916,0.0459865259 L101.303796,0.0373640523 C101.726465,-0.0344898945 102.177886,0.00287415787 102.60918,0.172449472 L153.47025,20.2973029 C154.551361,20.7255524 155.198302,21.883838 154.945276,23.0593686 L148.383856,53.3271252 C148.099202,54.6233704 146.825447,55.4511278 145.528689,55.180957 L123.518316,50.5736819 L123.518316,122.579959 C123.518316,123.916442 122.431455,125 121.094443,125 L33.904036,125 C32.5670245,125 31.4830387,123.916442 31.4830387,122.579959 L31.4830387,50.5736819 L9.4927923,55.180957 C8.18740895,55.4626245 6.89927736,54.6319928 6.61749857,53.3271252 L0.073330045,23.1369709 C-0.219949915,21.9758111 0.386737061,20.7485457 1.53110397,20.2973029 L52.2886641,0.212687683 C52.59057,0.0747281047 52.9269794,0 53.2806405,0 C53.4704099,0 53.6544287,0.022993263 53.8298216,0.0632314732 Z M106.562709,45.5151641 C107.89972,45.5151641 108.986581,46.5987216 108.986581,47.9380791 C108.986581,49.2745626 107.89972,50.3581201 106.562709,50.3581201 L87.1889794,50.3581201 C85.8519678,50.3581201 84.7651068,49.2745626 84.7651068,47.9380791 C84.7651068,46.5987216 85.8519678,45.5151641 87.1889794,45.5151641 L106.562709,45.5151641 Z" id="Shape"></path>
                            </g>
                        </g>
                    </g>
                </g>
            </g>
        </g>
    </g>
</svg>