<?xml version="1.0" encoding="UTF-8"?>
<svg width="121px" height="121px" viewBox="0 0 121 121" version="1.1" xmlns="http://www.w3.org/2000/svg" xmlns:xlink="http://www.w3.org/1999/xlink">
    <!-- Generator: Sketch 51.1 (57501) - http://www.bohemiancoding.com/sketch -->
    <title>Group 24</title>
    <desc>Created with Sketch.</desc>
    <defs></defs>
    <g id="Desktop" stroke="none" stroke-width="1" fill="none" fill-rule="evenodd">
        <g id="Homepage" transform="translate(-551.000000, -2820.000000)" fill="#FF750F" fill-rule="nonzero">
            <g id="Group-27" transform="translate(510.000000, 2432.000000)">
                <g id="Group-26" transform="translate(0.000000, 386.000000)">
                    <g id="Group-25" transform="translate(0.000000, 2.000000)">
                        <g id="Group-24" transform="translate(41.000000, 0.000000)">
                            <g id="noun_Pizza_1848468_000000" transform="translate(60.500000, 60.500000) rotate(-180.000000) translate(-60.500000, -60.500000) ">
                                <path d="M116.330645,78.3044355 C112.711262,76.0057956 108.064286,76.110794 104.552419,78.5705645 L65.8709677,3.30443548 C64.8372444,1.28121657 62.7568823,0.00796315323 60.484879,0.00796315323 C58.2128758,0.00796315323 56.1325137,1.28121657 55.0987903,3.30443548 L16.4233871,78.5745968 C12.9113809,76.1187827 8.26810857,76.0122601 4.64717742,78.3044355 C2.34206853,79.7670296 0.735769948,82.1090931 0.201612903,84.7862903 C-0.328690758,87.4091169 0.238136435,90.1346962 1.77016129,92.328629 C15.7829759,110.537005 37.5082413,121.140027 60.483871,120.983871 C61.375,120.983871 62.2459677,120.965726 63.1189516,120.927419 C63.2682157,120.936251 63.4179631,120.932203 63.5665323,120.915323 C85.4502784,120.163056 105.855549,109.680218 119.211694,92.328629 C120.743718,90.1346962 121.310546,87.4091169 120.780242,84.7862903 C120.245116,82.1084077 118.637282,79.7662296 116.330645,78.3044355 Z M58.6875,5.14112903 C59.0595276,4.50069242 59.7442282,4.10659159 60.484879,4.10659159 C61.2255298,4.10659159 61.9102304,4.50069242 62.2822581,5.14112903 L101.578629,81.6290323 C91.4297845,93.8372996 76.3595754,100.875929 60.483871,100.822581 C44.5835613,100.985955 29.4678256,93.9264079 19.3870968,81.6290323 L58.6875,5.14112903 Z M115.887097,90.0362903 C103.217826,106.451939 83.8468325,116.310993 63.1189516,116.893145 L63.0745968,116.893145 L62.9919355,116.893145 C62.2056452,116.917339 61.4193548,116.943548 60.6149194,116.945565 L60.4334677,116.945565 C38.7882905,117.13159 18.3042971,107.173482 5.08064516,90.0362903 C4.17041466,88.7409286 3.83219589,87.1285581 4.14516129,85.5766129 C4.47164655,83.9705552 5.44131839,82.5681373 6.82862903,81.6955645 C7.88229073,81.0187437 9.10857456,80.6596778 10.3608871,80.6612903 C12.4615165,80.6466145 14.4370935,81.6581101 15.6532258,83.3709677 C26.4782919,97.0697659 43.0248252,104.999243 60.483871,104.854839 C77.9546556,105.072116 94.5282571,97.1330675 105.308468,83.3830645 C107.328089,80.5511058 111.217579,79.8078403 114.139113,81.6955645 C115.526424,82.5681373 116.496095,83.9705552 116.822581,85.5766129 C117.135546,87.1285581 116.797327,88.7409286 115.887097,90.0362903 Z" id="Shape"></path>
                                <path d="M44.3548387,90.7419355 C51.0357026,90.7419355 56.4516129,85.3260252 56.4516129,78.6451613 C56.4516129,71.9642974 51.0357026,66.5483871 44.3548387,66.5483871 C37.6739748,66.5483871 32.2580645,71.9642974 32.2580645,78.6451613 C32.2647327,85.3232613 37.6767387,90.7352673 44.3548387,90.7419355 Z M44.3548387,70.5806452 C48.808748,70.5806452 52.4193548,74.191252 52.4193548,78.6451613 C52.4193548,83.0990706 48.808748,86.7096774 44.3548387,86.7096774 C39.9009294,86.7096774 36.2903226,83.0990706 36.2903226,78.6451613 C36.2903226,74.191252 39.9009294,70.5806452 44.3548387,70.5806452 Z" id="Shape"></path>
                                <path d="M62.5,70.5806452 C62.5,77.2615091 67.9159103,82.6774194 74.5967742,82.6774194 C81.2776381,82.6774194 86.6935484,77.2615091 86.6935484,70.5806452 C86.6935484,63.8997813 81.2776381,58.483871 74.5967742,58.483871 C67.9186742,58.4905391 62.5066681,63.9025452 62.5,70.5806452 Z M74.5967742,62.516129 C79.0506835,62.516129 82.6612903,66.1267359 82.6612903,70.5806452 C82.6612903,75.0345544 79.0506835,78.6451613 74.5967742,78.6451613 C70.1428649,78.6451613 66.5322581,75.0345544 66.5322581,70.5806452 C66.5322581,66.1267359 70.1428649,62.516129 74.5967742,62.516129 Z" id="Shape"></path>
                                <path d="M60.483871,54.4516129 C66.0512575,54.4516129 70.5645161,49.9383542 70.5645161,44.3709677 C70.5645161,38.8035812 66.0512575,34.2903226 60.483871,34.2903226 C54.9164845,34.2903226 50.4032258,38.8035812 50.4032258,44.3709677 C50.4098913,49.9355911 54.9192476,54.4449474 60.483871,54.4516129 Z M60.483871,38.3225806 C63.8243028,38.3225806 66.5322581,41.0305359 66.5322581,44.3709677 C66.5322581,47.7113996 63.8243028,50.4193548 60.483871,50.4193548 C57.1434391,50.4193548 54.4354839,47.7113996 54.4354839,44.3709677 C54.4354839,41.0305359 57.1434391,38.3225806 60.483871,38.3225806 Z" id="Shape"></path>
                                <path d="M67.3387097,85.7903226 C66.2656897,86.0847601 65.6340635,87.1928129 65.9274194,88.266129 C66.2207752,89.3394452 65.589149,90.447498 64.516129,90.7419355 C63.9990891,90.8841468 63.4465254,90.8114409 62.983871,90.5403226 C62.5222349,90.2771905 62.1831411,89.8424548 62.0403226,89.3306452 C61.8680532,88.6169653 61.3214484,88.0533468 60.6133823,87.8592895 C59.9053161,87.6652325 59.1477341,87.8714173 58.635675,88.3975458 C58.1236159,88.9236744 57.9380363,89.6865655 58.1512097,90.3891129 C58.8660399,93.018594 61.2508984,94.8454169 63.9758065,94.8508065 C64.5159397,94.8500365 65.0535754,94.7774929 65.5745968,94.6350806 C67.1227607,94.2134734 68.4399567,93.1939802 69.2362782,91.8009847 C70.0325996,90.4079893 70.2427817,88.7556591 69.8205645,87.2076613 C69.6805355,86.6898796 69.3399514,86.2492409 68.8741712,85.9832429 C68.4083911,85.717245 67.8558155,85.6478175 67.3387097,85.7903226 Z" id="Shape"></path>
                                <path d="M44.6008065,60.8629032 C45.5646778,61.4770845 46.6836929,61.803697 47.8266129,61.8044355 C48.2755484,61.8043244 48.7231173,61.7549702 49.1612903,61.6572581 C50.7284306,61.3095355 52.0916151,60.3499351 52.9475806,58.9919355 C53.5432909,58.0510472 53.263469,56.8053879 52.3225806,56.2096774 C51.3816923,55.6139671 50.1360329,55.8937891 49.5403226,56.8346774 C49.1655145,57.4666411 48.4765867,57.8446657 47.7422063,57.82133 C47.0078258,57.7979944 46.3442879,57.3769938 46.0103581,56.7225093 C45.676428,56.0680248 45.7249865,55.2836994 46.1370968,54.6754032 C46.7333639,53.7345149 46.4539931,52.4884042 45.5131048,51.8921371 C44.5722165,51.29587 43.3261058,51.5752407 42.7298387,52.516129 C41.8710581,53.8710762 41.585719,55.5116839 41.9365958,57.0770181 C42.2874726,58.6423524 43.245822,60.0041817 44.6008065,60.8629032 Z" id="Shape"></path>
                                <path d="M56.266129,27.8165323 C56.8001454,27.8796847 57.3370095,27.7242472 57.7546802,27.3855542 C58.1723508,27.0468613 58.4353423,26.5536885 58.483871,26.0181452 C58.5387506,25.4852637 58.8034496,24.9961317 59.2195377,24.6587222 C59.6356258,24.3213125 60.1688889,24.1633696 60.7016129,24.2197581 C61.2337651,24.2756323 61.7218798,24.5407558 62.0584407,24.95673 C62.3950018,25.3727042 62.5524008,25.9054069 62.4959677,26.4375 C62.4396008,26.9705397 62.5978157,27.5040841 62.9356498,27.920229 C63.2734841,28.3363742 63.763125,28.6008607 64.296371,28.6552419 C64.3635234,28.6589784 64.4308315,28.6589784 64.4979839,28.6552419 C65.532626,28.6542202 66.3985524,27.8701823 66.5020161,26.8407258 C66.7426308,24.6817254 65.8069333,22.5595141 64.0506728,21.2809496 C62.2944123,20.0023853 59.9873746,19.7638728 58.0066881,20.656094 C56.0260016,21.5483153 54.6759268,23.4342127 54.4697581,25.5967742 C54.4127772,26.1295085 54.5701857,26.6630143 54.9072278,27.0794942 C55.24427,27.4959738 55.7332238,27.7611716 56.266129,27.8165323 Z" id="Shape"></path>
                            </g>
                        </g>
                    </g>
                </g>
            </g>
        </g>
    </g>
</svg>