<?xml version="1.0" encoding="UTF-8"?>
<svg width="105px" height="125px" viewBox="0 0 105 125" version="1.1" xmlns="http://www.w3.org/2000/svg" xmlns:xlink="http://www.w3.org/1999/xlink">
    <!-- Generator: Sketch 51.1 (57501) - http://www.bohemiancoding.com/sketch -->
    <title>Group 22</title>
    <desc>Created with Sketch.</desc>
    <defs></defs>
    <g id="Desktop" stroke="none" stroke-width="1" fill="none" fill-rule="evenodd">
        <g id="Homepage" transform="translate(-794.000000, -2818.000000)" fill="#FF750F" fill-rule="nonzero">
            <g id="Group-27" transform="translate(510.000000, 2432.000000)">
                <g id="Group-26" transform="translate(0.000000, 386.000000)">
                    <g id="Group-23" transform="translate(234.000000, 0.000000)">
                        <g id="Group-22" transform="translate(50.000000, 0.000000)">
                            <g id="noun_Beer_902531_000000">
                                <path d="M27.9992422,108 C26.3457944,108 25,106.660734 25,105.015308 L25,70.9862001 C25,69.3392655 26.3457944,68 27.9992422,68 C29.6542056,68 31,69.3407737 31,70.9862001 L31,105.015308 C31,106.660734 29.6542056,108 27.9992422,108 Z" id="Shape"></path>
                                <path d="M46.0007578,108 C44.3457944,108 43,106.660734 43,105.015308 L43,70.9862001 C43,69.3392655 44.3457944,68 46.0007578,68 C47.6542056,68 49,69.3407737 49,70.9862001 L49,105.015308 C48.9984845,106.660734 47.6542056,108 46.0007578,108 Z" id="Shape"></path>
                                <path d="M64.9992422,108 C63.3473099,108 62,106.660734 62,105.015308 L62,70.9862001 C62,69.3392655 63.3473099,68 64.9992422,68 C66.6542056,68 68,69.3407737 68,70.9862001 L68,105.015308 C68,106.660734 66.6542056,108 64.9992422,108 Z" id="Shape"></path>
                                <path d="M22.9093146,124.998467 C15.0663338,124.998467 8.684014,118.63526 8.684014,110.815766 L8.684014,45.279791 C3.31800677,42.1372773 0,36.5757944 0,30.678599 C0,21.175944 8.23966555,13.4438272 18.3643526,13.4438272 C18.911716,13.4438272 19.4667672,13.4652883 20.0233559,13.5112763 C24.7989486,5.16598604 33.9134732,0 43.9182323,0 C54.1551595,0 63.3511737,5.33000993 68.0406642,13.9358989 C69.6443162,13.609384 71.2848692,13.4438272 72.9269596,13.4438272 C84.5430584,13.4438272 93.9927663,21.4672014 93.9927663,31.3300958 C93.9927663,37.3039378 90.5102429,42.8240315 84.6599113,46.1673596 L84.6599113,53.6680034 L92.4982794,53.6680034 C99.3895242,53.6680034 105,59.4793545 105,66.6197589 L105,86.5034399 C105,93.6438444 99.3910618,99.4551954 92.4982794,99.4551954 L84.6599113,99.4551954 L84.6599113,110.817299 C84.6599113,118.636793 78.279129,125 70.4346107,125 L22.9093146,125 L22.9093146,124.998467 Z M14.772664,110.815766 C14.772664,115.288866 18.422779,118.92805 22.9093146,118.92805 L70.4315356,118.92805 C74.9180712,118.92805 78.5681861,115.288866 78.5681861,110.815766 L78.5681861,48.5541371 C76.7231407,48.994089 74.8258189,49.2163644 72.9238846,49.2163644 C72.4041967,49.2163644 71.8814339,49.1979692 71.3540584,49.1642446 L71.3540584,53.6266142 C71.3540584,60.6167911 66.4877509,66.3055075 60.505191,66.3055075 L60.0700678,66.3055075 C54.0875079,66.3055075 49.222738,60.6167911 49.222738,53.6266142 L49.222738,51.3103516 C47.4684073,51.6491299 45.6848633,51.8208185 43.9151572,51.8208185 C37.6896663,51.8208185 31.6256168,49.7682204 26.7962103,46.0355273 C24.2192968,47.2664729 21.3364133,47.9179697 18.422779,47.9179697 C17.2265745,47.9179697 16.0026944,47.7984008 14.7711265,47.5592632 L14.7711265,110.815766 L14.772664,110.815766 Z M92.4952043,93.3847786 C96.033079,93.3847786 98.9067373,90.2974504 98.9067373,86.501907 L98.9067373,66.618226 C98.9067373,62.8242154 96.033079,59.7368873 92.4952043,59.7368873 L84.6568362,59.7368873 L84.6568362,63.0127663 L89.578495,63.0127663 C92.4106398,63.0127663 94.6277694,65.210993 94.6277694,68.0162614 L94.6277694,85.1054045 C94.6277694,87.9106729 92.4106398,90.1058337 89.578495,90.1058337 L84.6568362,90.1058337 L84.6568362,93.3847786 L92.4952043,93.3847786 Z M88.5421944,84.0369498 L88.5421944,69.0816502 L84.6583737,69.0816502 L84.6583737,84.0369498 L88.5421944,84.0369498 Z M55.311388,53.6250812 C55.311388,57.2075469 57.4916168,60.2335578 60.0716053,60.2335578 L60.5067286,60.2335578 C63.0882547,60.2335578 65.2669459,57.2075469 65.2669459,53.6250812 L65.2669459,41.9012055 L68.9631869,42.7090615 C70.3023825,42.9987859 71.6369653,43.1474805 72.9238846,43.1474805 C81.1850756,43.1474805 87.9041162,37.8465963 87.9041162,31.3316287 C87.9041162,24.8151282 81.1850756,19.515777 72.9238846,19.515777 C71.0158,19.515777 69.1277035,19.8101002 67.3149463,20.3941479 L64.6519307,21.2495248 L63.5741166,18.6726635 C60.3714252,11.0187263 52.6560601,6.07194977 43.9166947,6.07194977 C35.4694616,6.07194977 27.8509613,10.7857204 24.5098915,18.0794182 L23.5028042,20.2684473 L21.1365334,19.7932379 C20.2155482,19.6046871 19.2822627,19.5111782 18.362815,19.5111782 C11.5914981,19.5111782 6.08557497,24.520805 6.08557497,30.680132 C6.08557497,36.8394589 11.6222489,41.8475528 18.4243165,41.8475528 C20.9766294,41.8475528 23.4274648,41.1454693 25.5123662,39.81335 L27.4819522,38.5548116 L29.2070697,40.1276014 C33.1831427,43.7529892 38.4046214,45.7488687 43.9151572,45.7488687 C46.3952058,45.7488687 48.8675667,45.3242461 51.2615132,44.4887973 L55.3098505,43.0769655 L55.3098505,53.6250812 L55.311388,53.6250812 Z" id="Shape"></path>
                            </g>
                        </g>
                    </g>
                </g>
            </g>
        </g>
    </g>
</svg>