<?xml version="1.0" standalone="no"?>
<!DOCTYPE svg PUBLIC "-//W3C//DTD SVG 20010904//EN"
 "http://www.w3.org/TR/2001/REC-SVG-20010904/DTD/svg10.dtd">
<svg version="1.0" xmlns="http://www.w3.org/2000/svg"
 width="171.000000pt" height="171.000000pt" viewBox="0 0 171.000000 171.000000"
 preserveAspectRatio="xMidYMid meet">
<metadata>
Created by potrace 1.11, written by Peter Selinger 2001-2013
</metadata>
<g transform="translate(0.000000,171.000000) scale(0.100000,-0.100000)"
fill="#000000" stroke="none">
<path d="M423 1281 l-423 -426 205 -205 c137 -137 202 -195 195 -176 -34 93
-11 272 51 383 49 87 188 286 220 313 3 3 26 39 51 80 72 120 112 244 123 383
4 42 5 76 3 75 -2 0 -193 -193 -425 -427z"/>
<path d="M954 1579 c67 -117 97 -278 75 -400 -12 -70 -29 -106 -89 -189 -61
-83 -70 -102 -76 -151 -10 -78 33 -164 86 -174 40 -8 102 29 132 79 42 70 51
118 44 236 l-6 105 25 -30 c60 -73 124 -176 150 -240 24 -60 29 -84 29 -170 1
-55 -3 -118 -8 -140 -8 -39 -2 -33 183 150 105 105 191 195 191 200 0 6 -172
181 -381 390 -278 277 -374 368 -355 334z"/>
<path d="M744 1078 c-124 -97 -236 -268 -270 -415 -19 -82 -14 -208 11 -268
11 -26 76 -100 191 -215 l174 -176 174 176 c150 152 176 182 189 225 33 103
32 195 -3 237 -16 21 -19 21 -42 6 -14 -9 -32 -23 -39 -31 -37 -36 -104 -69
-153 -74 -43 -4 -61 -1 -103 20 -58 30 -109 86 -123 137 -20 72 -12 128 36
248 35 86 44 119 37 131 -15 25 -46 24 -79 -1z"/>
</g>
</svg>
